<?xml version="1.0" encoding="UTF-8" standalone="no"?>
<svg width="256px" height="256px" viewBox="0 0 256 256" version="1.1" xmlns="http://www.w3.org/2000/svg" xmlns:xlink="http://www.w3.org/1999/xlink" xmlns:sketch="http://www.bohemiancoding.com/sketch/ns">
    <!-- Generator: Sketch 3.3.3 (12081) - http://www.bohemiancoding.com/sketch -->
    <title>icon_256x256</title>
    <desc>Created with Sketch.</desc>
    <defs></defs>
    <g id="Page-1" stroke="none" stroke-width="1" fill="none" fill-rule="evenodd" sketch:type="MSPage">
        <g id="icon_256x256" sketch:type="MSArtboardGroup">
            <circle id="Blue-Circle" stroke="#004CDC" stroke-width="6" sketch:type="MSShapeGroup" cx="128.5" cy="128.5" r="99.5"></circle>
            <g id="Grads" sketch:type="MSLayerGroup" transform="translate(24.000000, 21.000000)">
                <rect id="Rectangle-path" sketch:type="MSShapeGroup" x="0" y="0" width="210" height="210"></rect>
                <rect id="Rectangle-path" sketch:type="MSShapeGroup" x="26.2498975" y="26.2498975" width="157.5" height="157.5"></rect>
                <path d="M164.990479,94.2528809 L105.448608,67.101665 L46.0588037,94.2921533 L104.731348,120.886274 L164.990479,94.2528809 L164.990479,94.2528809 Z M107.094565,59.1280225 L176.340937,90.7047217 L184.392766,94.3763892 L176.294436,97.9556484 L106.315422,128.885121 L104.694259,129.601483 L103.0789,128.869498 L34.8416147,97.9401281 L26.8926123,94.337008 L34.8262339,90.7047053 L103.795853,59.1280061 L105.441851,58.3744649 L107.094504,59.1280061 L107.094565,59.1280225 Z" id="Shape" fill="#004CDC" sketch:type="MSShapeGroup"></path>
                <path d="M104.850293,135.241846 L139.115566,120.026895 L144.68756,117.552514 L144.686227,123.652419 L144.681504,143.586013 L144.681141,145.360267 L143.358869,146.542409 C130.648537,157.905583 117.81526,163.508625 104.862834,163.46884 C91.8938981,163.428874 79.0674919,157.757937 66.3822819,146.573479 L65.0424552,145.391941 L65.0440297,143.585962 L65.0631649,123.727222 L65.0690992,117.621133 L70.6338224,120.08607 L104.850185,135.241753 L104.850293,135.241846 Z M136.748965,129.752089 L106.437393,143.211571 L104.819008,143.930113 L103.231868,143.227074 L72.9932007,129.833217 L72.9816953,141.756459 C83.7390683,150.877319 94.3674472,155.500692 104.862833,155.533095 C115.379239,155.565431 126.006593,151.013419 136.746124,141.787733 L136.74891,129.752108 L136.748965,129.752089 Z" id="Shape" fill="#004CDC" sketch:type="MSShapeGroup"></path>
                <path d="M37.155542,107.920313 L43.3517725,131.837549 L31.6351465,131.785254 L37.155542,107.920313 Z" id="Shape" fill="#004CDC" sketch:type="MSShapeGroup"></path>
                <circle id="Oval" fill="#004CDC" sketch:type="MSShapeGroup" cx="37.2370605" cy="107.843408" r="3.89059863"></circle>
            </g>
        </g>
    </g>
</svg>