<?xml version="1.0" encoding="UTF-8" standalone="no"?>
<svg width="256px" height="256px" viewBox="0 0 256 256" version="1.1" xmlns="http://www.w3.org/2000/svg" xmlns:xlink="http://www.w3.org/1999/xlink" xmlns:sketch="http://www.bohemiancoding.com/sketch/ns">
    <!-- Generator: Sketch 3.3.3 (12081) - http://www.bohemiancoding.com/sketch -->
    <title>icon_256x256</title>
    <desc>Created with Sketch.</desc>
    <defs></defs>
    <g id="Page-1" stroke="none" stroke-width="1" fill="none" fill-rule="evenodd" sketch:type="MSPage">
        <g id="icon_256x256" sketch:type="MSArtboardGroup">
            <circle id="Purple-Circle" stroke="#9F14CF" stroke-width="6" sketch:type="MSShapeGroup" cx="128.5" cy="128.5" r="99.5"></circle>
            <g id="People" sketch:type="MSLayerGroup" transform="translate(55.000000, 72.000000)" fill="#9F14CF">
                <path d="M26.0360305,82.7052381 C17.5189939,83.584127 9.21618293,83.4953413 0.483128049,82.4352937 C-1.35526829,65.647619 1.4807561,46.7497143 19.2077012,39.6925952 C13.3438354,36.1402698 9.47164024,29.7943333 9.55051829,22.5973095 C9.74681707,4.41865873 33.1951098,-3.50030952 45.5457988,9.16196825 C32.8903537,21.0215873 36.2865915,43.2090476 48.3370061,51.4795714 C36.8360488,55.6184206 27.6315183,70.4689524 26.0360305,82.7052381 L26.0360305,82.7052381 L26.0360305,82.7052381 Z M88.3801646,51.4428016 C96.2419756,46.6492698 101.506189,38.1948968 101.611061,28.511873 C101.775988,13.3689762 89.263061,0.956015873 73.6622378,0.786515873 C58.062311,0.617912698 45.2822744,12.7555476 45.1191402,27.8975476 C45.0115793,37.8254048 50.3537744,46.5802143 58.4414634,51.4795714 C34.1712256,61.1401746 30.1358963,86.8907222 32.555122,109.916714 C53.0347317,113.363214 92.6709512,113.363214 114.011945,109.916714 C116.763713,86.8333254 112.844909,61.112373 88.3801646,51.4428016 L88.3801646,51.4428016 L88.3801646,51.4428016 Z M120.825037,82.7043413 C118.891628,69.5819921 110.766293,56.2417143 98.4828293,51.4436984 C109.476457,43.1005317 113.417671,20.4081587 101.161994,9.16824603 C113.51089,-3.50030952 136.964561,4.41686508 137.162652,22.5982063 C137.240634,29.7952302 133.368439,36.1411667 127.50547,39.6934921 C145.232415,46.7506111 148.067543,65.6485159 146.231835,82.4361905 C137.653848,83.3859286 129.401232,83.4756111 120.825037,82.7043413 L120.825037,82.7043413 Z" id="Shape" sketch:type="MSShapeGroup"></path>
            </g>
        </g>
    </g>
</svg>