<?xml version="1.0" encoding="UTF-8" standalone="no"?>
<svg width="256px" height="256px" viewBox="0 0 256 256" version="1.1" xmlns="http://www.w3.org/2000/svg" xmlns:xlink="http://www.w3.org/1999/xlink" xmlns:sketch="http://www.bohemiancoding.com/sketch/ns">
    <!-- Generator: Sketch 3.3.3 (12081) - http://www.bohemiancoding.com/sketch -->
    <title>icon_256x256</title>
    <desc>Created with Sketch.</desc>
    <defs></defs>
    <g id="Page-1" stroke="none" stroke-width="1" fill="none" fill-rule="evenodd" sketch:type="MSPage">
        <g id="icon_256x256" sketch:type="MSArtboardGroup">
            <circle id="Purple-Circle" stroke="#9F14CF" stroke-width="6" sketch:type="MSShapeGroup" cx="128.5" cy="128.5" r="99.5"></circle>
            <g id="Pubs" sketch:type="MSLayerGroup" transform="translate(71.000000, 62.000000)" fill="#9F14CF">
                <g id="Group" sketch:type="MSShapeGroup">
                    <path d="M104.846154,18.9222656 L104.846154,107.828125 C104.846154,116.621875 97.6289593,123.819141 88.8371041,123.819141 L24.0660633,123.819141 C22.5963801,123.819141 21.1791855,123.557422 19.8144796,123.164844 C21.8615385,129.367578 27.6877828,133.921484 34.5638009,133.921484 L100.148416,133.921484 C108.730317,133.921484 115.763801,126.907422 115.763801,118.349219 L115.763801,33.709375 C115.763801,26.7738281 111.144796,20.9375 104.846154,18.9222656 L104.846154,18.9222656 Z" id="Shape"></path>
                    <path d="M81.4099548,0 L15.8515837,0 C7.26968326,0 0.236199095,7.0140625 0.236199095,15.5722656 L0.236199095,100.238281 C0.236199095,108.796484 7.26968326,115.810547 15.8515837,115.810547 L81.4361991,115.810547 C90.0180995,115.810547 97.0515837,108.796484 97.0515837,100.238281 L97.0515837,15.5722656 C97.0253394,7.0140625 90.0180995,0 81.4099548,0 L81.4099548,0 Z M86.3963801,91.5492187 C86.3963801,98.2753906 80.8588235,103.797656 74.1140271,103.797656 L22.5438914,103.797656 C15.799095,103.797656 10.2615385,98.2753906 10.2615385,91.5492187 L10.2615385,24.9679688 C10.2615385,18.2417969 15.799095,12.7195313 22.5438914,12.7195313 L74.1402715,12.7195313 C80.8850679,12.7195313 86.4226244,18.2417969 86.4226244,24.9679688 L86.4226244,91.5492187 L86.3963801,91.5492187 Z" id="Shape"></path>
                    <g transform="translate(19.683258, 25.386719)" id="Shape">
                        <path d="M55.0606335,5.36523437 L21.1266968,5.36523437 C19.7095023,5.36523437 18.5547511,4.21367187 18.5547511,2.80039062 L18.5547511,2.6171875 C18.5547511,1.20390625 19.7095023,0.05234375 21.1266968,0.05234375 L55.0606335,0.05234375 C56.4778281,0.05234375 57.6325792,1.20390625 57.6325792,2.6171875 L57.6325792,2.80039062 C57.6588235,4.21367187 56.4778281,5.36523437 55.0606335,5.36523437 L55.0606335,5.36523437 Z"></path>
                        <path d="M55.0606335,20.4664063 L2.72941176,20.4664063 C1.31221719,20.4664063 0.157466063,19.3148438 0.157466063,17.9015625 L0.157466063,17.7183594 C0.157466063,16.3050781 1.31221719,15.1535156 2.72941176,15.1535156 L55.0868778,15.1535156 C56.5040724,15.1535156 57.6588235,16.3050781 57.6588235,17.7183594 L57.6588235,17.9015625 C57.6588235,19.2886719 56.4778281,20.4664063 55.0606335,20.4664063 L55.0606335,20.4664063 Z"></path>
                        <path d="M55.0606335,35.5414063 L2.72941176,35.5414063 C1.31221719,35.5414063 0.157466063,34.3898438 0.157466063,32.9765625 L0.157466063,32.7933594 C0.157466063,31.3800781 1.31221719,30.2285156 2.72941176,30.2285156 L55.0868778,30.2285156 C56.5040724,30.2285156 57.6588235,31.3800781 57.6588235,32.7933594 L57.6588235,32.9765625 C57.6588235,34.3898438 56.4778281,35.5414063 55.0606335,35.5414063 L55.0606335,35.5414063 Z"></path>
                        <path d="M55.0606335,50.6425781 L2.72941176,50.6425781 C1.31221719,50.6425781 0.157466063,49.4910156 0.157466063,48.0777344 L0.157466063,47.8945313 C0.157466063,46.48125 1.31221719,45.3296875 2.72941176,45.3296875 L55.0868778,45.3296875 C56.5040724,45.3296875 57.6588235,46.48125 57.6588235,47.8945313 L57.6588235,48.0777344 C57.6588235,49.4910156 56.4778281,50.6425781 55.0606335,50.6425781 L55.0606335,50.6425781 Z"></path>
                        <path d="M55.0606335,65.74375 L2.72941176,65.74375 C1.31221719,65.74375 0.157466063,64.5921875 0.157466063,63.1789063 L0.157466063,62.9957031 C0.157466063,61.5824219 1.31221719,60.4308594 2.72941176,60.4308594 L55.0868778,60.4308594 C56.5040724,60.4308594 57.6588235,61.5824219 57.6588235,62.9957031 L57.6588235,63.1789063 C57.6588235,64.5660156 56.4778281,65.74375 55.0606335,65.74375 L55.0606335,65.74375 Z"></path>
                    </g>
                </g>
            </g>
        </g>
    </g>
</svg>