<?xml version="1.0" encoding="UTF-8" standalone="no"?>
<svg width="256px" height="256px" viewBox="0 0 256 256" version="1.1" xmlns="http://www.w3.org/2000/svg" xmlns:xlink="http://www.w3.org/1999/xlink" xmlns:sketch="http://www.bohemiancoding.com/sketch/ns">
    <!-- Generator: Sketch 3.3.3 (12081) - http://www.bohemiancoding.com/sketch -->
    <title>icon_256x256</title>
    <desc>Created with Sketch.</desc>
    <defs></defs>
    <g id="Page-1" stroke="none" stroke-width="1" fill="none" fill-rule="evenodd" sketch:type="MSPage">
        <g id="icon_256x256" sketch:type="MSArtboardGroup">
            <circle id="Purple-Circle" stroke="#9F14CF" stroke-width="6" sketch:type="MSShapeGroup" cx="128.5" cy="128.5" r="99.5"></circle>
            <g id="Analysis-Techniques" sketch:type="MSLayerGroup" transform="translate(73.000000, 73.000000)" fill="#9F14CF">
                <g id="Group" sketch:type="MSShapeGroup">
                    <path d="M7,105 L112,105 L112,112 L0,112 L0,0 L14,0 L14,7 L7,7 L7,21 L14,21 L14,28 L7,28 L7,42 L14,42 L14,49 L7,49 L7,63 L14,63 L14,70 L7,70 L7,84 L14,84 L14,91 L7,91 L7,105 L7,105 Z M87.206,45.633 C86.8035,51.8175 86.296,59.5 84,59.5 C79.905,59.5 78.785,57.274 76.8215,51.394 C75.005,45.9515 72.5235,38.5 63,38.5 C53.032,38.5 50.9215,51.2155 49.0525,62.426 C47.7085,70.4795 46.0425,80.5 42,80.5 C34.8565,80.5 31.514,61.7015 31.5,49 L24.5,49 C24.5,52.9375 24.997,87.5 42,87.5 C51.9715,87.5 54.082,74.7915 55.951,63.5705 C57.2985,55.517 58.961,45.5 63,45.5 C67.095,45.5 68.215,47.7225 70.1785,53.6025 C71.9985,59.0485 74.48,66.5 84,66.5 C92.8515,66.5 93.541,56.119 94.192,46.102 C95.291,29.3545 97.2055,17.5 112,17.5 L112,10.5 C89.502,10.5 88.123,31.647 87.206,45.633 L87.206,45.633 Z" id="Shape"></path>
                </g>
            </g>
        </g>
    </g>
</svg>